<?xml version="1.0" encoding="UTF-8" standalone="no"?>
<svg
   xmlns:dc="http://purl.org/dc/elements/1.1/"
   xmlns:cc="http://creativecommons.org/ns#"
   xmlns:rdf="http://www.w3.org/1999/02/22-rdf-syntax-ns#"
   xmlns:svg="http://www.w3.org/2000/svg"
   xmlns="http://www.w3.org/2000/svg"
   xmlns:sodipodi="http://sodipodi.sourceforge.net/DTD/sodipodi-0.dtd"
   xmlns:inkscape="http://www.inkscape.org/namespaces/inkscape"
   sodipodi:docname="attendfy.svg"
   inkscape:version="1.0 (4035a4fb49, 2020-05-01)"
   id="svg2021"
   version="1.1"
   viewBox="0 0 165.72612 36.989422"
   height="36.989422mm"
   width="165.72612mm">
  <defs
     id="defs2015" />
  <sodipodi:namedview
     inkscape:window-maximized="1"
     inkscape:window-y="0"
     inkscape:window-x="0"
     inkscape:window-height="1015"
     inkscape:window-width="1920"
     fit-margin-bottom="0"
     fit-margin-right="0"
     fit-margin-left="0"
     fit-margin-top="0"
     showgrid="false"
     inkscape:document-rotation="0"
     inkscape:current-layer="layer1"
     inkscape:document-units="mm"
     inkscape:cy="257.16248"
     inkscape:cx="168.51664"
     inkscape:zoom="0.35"
     inkscape:pageshadow="2"
     inkscape:pageopacity="0.0"
     borderopacity="1.0"
     bordercolor="#666666"
     pagecolor="#ffffff"
     id="base" />
  <metadata
     id="metadata2018">
    <rdf:RDF>
      <cc:Work
         rdf:about="">
        <dc:format>image/svg+xml</dc:format>
        <dc:type
           rdf:resource="http://purl.org/dc/dcmitype/StillImage" />
        <dc:title></dc:title>
      </cc:Work>
    </rdf:RDF>
  </metadata>
  <g
     transform="translate(-61.246638,-80.125761)"
     id="layer1"
     inkscape:groupmode="layer"
     inkscape:label="Layer 1">
    <g
       id="g2003"
       class="text"
       transform="matrix(0.56300488,0,0,0.56300488,143.38342,108.87842)"
       light-content="false"
       fill="#a5427c"
       style="fill:#0182ef;fill-opacity:1">
      <path
         d="m -143.24,-35.07 2.66,7.6 c 1.67,-0.81 3.6,-1.5 5.77,-2.05 2.18,-0.55 4.41,-0.82 6.71,-0.82 2.48,0 4.18,0.43 5.09,1.29 0.91,0.86 1.36,2.2 1.36,4.02 0,0.71 -0.07,1.58 -0.21,2.58 -0.53,-0.1 -1.46,-0.25 -2.8,-0.47 -1.34,-0.21 -2.68,-0.32 -4.02,-0.32 -5.78,0 -10.1,1.09 -12.94,3.26 -2.85,2.18 -4.27,5.4 -4.27,9.65 0,1.58 0.3,3.04 0.9,4.38 0.59,1.34 1.43,2.5 2.51,3.48 1.07,0.98 2.36,1.73 3.87,2.25 1.51,0.53 3.17,0.79 4.98,0.79 3.02,0 5.48,-0.59 7.39,-1.79 1.92,-1.19 3.49,-2.63 4.74,-4.3 h 0.86 l 1.65,5.59 h 8.17 c -0.52,-1.58 -0.9,-3.23 -1.14,-4.95 -0.24,-1.72 -0.36,-3.49 -0.36,-5.31 0,-2.67 0.09,-5.21 0.28,-7.6 0.2,-2.39 0.29,-4.8 0.29,-7.24 0,-2.01 -0.23,-3.84 -0.68,-5.49 -0.45,-1.65 -1.21,-3.06 -2.26,-4.23 -1.05,-1.17 -2.47,-2.07 -4.27,-2.69 -1.79,-0.62 -4,-0.93 -6.63,-0.93 -3.35,0 -6.59,0.31 -9.72,0.93 -3.13,0.62 -5.77,1.41 -7.93,2.37 z m 13.13,27.61 c -1.67,0 -3,-0.43 -3.98,-1.29 -0.98,-0.86 -1.47,-2.15 -1.47,-3.87 0,-1.39 0.62,-2.55 1.86,-3.48 1.25,-0.93 3.16,-1.4 5.74,-1.4 0.48,0 1.02,0.02 1.61,0.07 0.6,0.05 1.2,0.12 1.8,0.22 0.6,0.09 1.15,0.19 1.65,0.28 0.5,0.1 0.87,0.19 1.11,0.29 v 4.3 c -0.62,1.15 -1.6,2.25 -2.94,3.3 -1.34,1.05 -3.13,1.58 -5.38,1.58 z m 24.17,-30.2 v 8.4 h 5.74 v 18.79 c 0,4.06 0.86,7.02 2.58,8.86 1.72,1.84 4.45,2.76 8.18,2.76 1.86,0 3.79,-0.24 5.77,-0.72 1.99,-0.48 3.74,-1.05 5.27,-1.72 l -2.08,-7.53 c -0.86,0.38 -1.67,0.66 -2.44,0.82 -0.76,0.17 -1.69,0.25 -2.79,0.25 -1.77,0 -2.96,-0.65 -3.55,-1.97 -0.6,-1.31 -0.9,-3.48 -0.9,-6.49 v -13.05 h 10.11 v -8.4 h -10.11 v -7.81 l -10.04,2.65 v 5.16 z m 28.4,0 v 8.4 h 5.74 v 18.79 c 0,4.06 0.86,7.02 2.58,8.86 1.73,1.84 4.45,2.76 8.18,2.76 1.87,0 3.79,-0.24 5.78,-0.72 1.98,-0.48 3.74,-1.05 5.27,-1.72 l -2.08,-7.53 c -0.86,0.38 -1.68,0.66 -2.44,0.82 -0.77,0.17 -1.7,0.25 -2.8,0.25 -1.77,0 -2.95,-0.65 -3.55,-1.97 -0.6,-1.31 -0.9,-3.48 -0.9,-6.49 v -13.05 h 10.12 v -8.4 h -10.12 v -7.81 l -10.04,2.65 v 5.16 z m 65.35,34.22 -3.45,-6.31 c -0.95,0.66 -2.33,1.32 -4.12,1.97 -1.79,0.64 -3.81,0.97 -6.06,0.97 -3.73,0 -6.42,-0.78 -8.07,-2.34 -1.65,-1.55 -2.59,-3.95 -2.83,-7.2 h 25.1 c 0.29,-1.29 0.49,-2.54 0.61,-3.73 0.12,-1.2 0.18,-2.3 0.18,-3.3 0,-2.92 -0.47,-5.37 -1.4,-7.35 -0.93,-1.99 -2.16,-3.57 -3.69,-4.74 -1.53,-1.17 -3.28,-2.01 -5.24,-2.51 -1.96,-0.5 -3.94,-0.75 -5.95,-0.75 -6.17,0 -10.95,1.68 -14.35,5.05 -3.39,3.38 -5.09,8.34 -5.09,14.89 0,6.17 1.51,11.02 4.52,14.56 3.01,3.54 7.75,5.31 14.2,5.31 3.2,0 6.2,-0.45 9,-1.33 2.8,-0.89 5.01,-1.95 6.64,-3.19 z m -15.07,-27.4 c 2.63,0 4.52,0.76 5.67,2.29 1.15,1.53 1.63,3.61 1.44,6.24 h -16.22 c 0.24,-2.48 1.08,-4.53 2.52,-6.13 1.43,-1.6 3.63,-2.4 6.59,-2.4 z M 23.6,0 h 10.04 v -22.74 c 0,-3.11 -0.28,-5.69 -0.83,-7.74 -0.55,-2.06 -1.33,-3.7 -2.36,-4.92 -1.03,-1.22 -2.32,-2.08 -3.88,-2.58 -1.55,-0.5 -3.33,-0.75 -5.34,-0.75 -3.3,0 -5.98,0.63 -8.03,1.9 -2.06,1.27 -3.71,2.78 -4.95,4.55 H 7.17 L 6.1,-37.66 H -1.79 V 0 H 8.25 c 0,-3.92 -0.01,-7.85 -0.04,-11.8 -0.02,-3.94 -0.03,-7.88 -0.03,-11.8 0.57,-1.81 1.61,-3.31 3.12,-4.48 1.5,-1.17 3.33,-1.76 5.48,-1.76 2.54,0 4.31,0.72 5.31,2.15 1.01,1.44 1.51,3.78 1.51,7.03 z M 78.25,-13.2 V -50.21 H 68.21 v 12.91 c -1.19,-0.38 -2.4,-0.7 -3.62,-0.97 -1.22,-0.26 -2.67,-0.39 -4.34,-0.39 -3.01,0 -5.67,0.48 -7.96,1.43 -2.3,0.96 -4.22,2.32 -5.78,4.09 -1.55,1.77 -2.72,3.92 -3.51,6.46 -0.79,2.53 -1.18,5.38 -1.18,8.53 0,6.55 1.38,11.4 4.16,14.53 2.77,3.13 6.67,4.7 11.69,4.7 2.82,0 5.25,-0.57 7.28,-1.69 2.03,-1.12 3.6,-2.64 4.7,-4.55 h 0.93 l 1.43,5.23 h 6.96 c -0.38,-2.53 -0.6,-4.88 -0.65,-7.03 -0.04,-2.15 -0.07,-4.23 -0.07,-6.24 z m -18,5.88 c -2.77,0 -4.82,-0.96 -6.13,-2.9 -1.32,-1.94 -1.98,-4.48 -1.98,-7.64 0,-4.54 0.78,-7.75 2.34,-9.61 1.55,-1.87 3.93,-2.8 7.13,-2.8 1.58,0 2.86,0.16 3.84,0.47 0.98,0.31 1.9,0.8 2.76,1.47 v 15.06 c -0.57,1.91 -1.48,3.38 -2.72,4.41 -1.25,1.03 -2.99,1.54 -5.24,1.54 z M 85,-37.66 v 8.4 h 5.66 V 0 h 10.04 v -29.26 h 9.18 v -8.4 h -9.18 c 0,-1.96 0.31,-3.32 0.94,-4.08 0.62,-0.77 1.96,-1.15 4.01,-1.15 1.1,0 2.13,0.07 3.09,0.21 0.95,0.15 2.03,0.41 3.22,0.79 l 1.87,-7.82 c -1.48,-0.47 -3.07,-0.82 -4.77,-1.04 -1.7,-0.21 -3.69,-0.32 -5.99,-0.32 -1.63,0 -3.19,0.17 -4.7,0.5 -1.5,0.34 -2.83,0.92 -3.98,1.76 -1.15,0.84 -2.05,1.96 -2.72,3.37 -0.67,1.41 -1.01,3.22 -1.01,5.42 v 2.36 z m 43.17,20.88 -7.67,-20.88 h -12.12 l 17.21,37.88 c -0.33,1.24 -0.73,2.23 -1.18,2.97 -0.46,0.74 -0.95,1.32 -1.47,1.72 -0.53,0.41 -1.1,0.68 -1.72,0.83 -0.62,0.14 -1.27,0.21 -1.94,0.21 -0.76,0 -1.51,-0.12 -2.22,-0.36 l -2.08,7.75 c 0.81,0.43 1.78,0.75 2.9,0.97 1.13,0.21 2.31,0.32 3.55,0.32 1.87,0 3.48,-0.42 4.84,-1.25 1.37,-0.84 2.6,-2.05 3.7,-3.63 1.1,-1.57 2.11,-3.49 3.05,-5.73 0.93,-2.25 1.92,-4.79 2.97,-7.61 l 12.48,-34.07 h -10.25 l -6.39,20.88 -1.36,6.02 h -0.72 z"
         id="path2001"
         style="fill:#0182ef;fill-opacity:1" />
    </g>
  </g>
</svg>
